<?xml version="1.0" standalone="no"?>
<!DOCTYPE svg PUBLIC "-//W3C//DTD SVG 20010904//EN"
 "http://www.w3.org/TR/2001/REC-SVG-20010904/DTD/svg10.dtd">
<svg version="1.0" xmlns="http://www.w3.org/2000/svg"
 width="515.000000pt" height="696.000000pt" viewBox="0 0 515.000000 696.000000"
 preserveAspectRatio="xMidYMid meet">

<g transform="translate(0.000000,696.000000) scale(0.100000,-0.100000)"
fill="#000000" stroke="none">
<path d="M3340 6848 c-54 -83 -127 -234 -134 -278 -3 -19 -11 -70 -18 -112 -6
-43 -15 -78 -19 -78 -5 0 -6 -7 -3 -15 4 -10 0 -15 -10 -15 -9 0 -21 12 -27
28 -11 32 -42 92 -49 97 -3 2 -4 -25 -2 -60 2 -37 -1 -72 -8 -82 -9 -15 -10
-11 -6 20 3 26 1 35 -6 31 -6 -4 -8 -3 -5 3 3 5 3 22 -1 37 -7 26 -9 24 -58
-51 -28 -43 -67 -108 -87 -144 -20 -36 -43 -72 -52 -79 -8 -7 -15 -20 -15 -29
0 -9 -8 -29 -18 -46 -38 -64 9 -96 111 -76 34 7 73 14 87 16 14 2 44 7 68 10
46 8 54 -2 25 -30 -53 -48 -93 -90 -93 -97 0 -13 27 -9 40 7 6 8 15 14 18 13
18 -2 26 3 15 10 -15 9 85 70 129 79 15 3 28 8 28 12 0 3 34 5 75 3 64 -4 75
-2 75 12 0 20 2 20 47 -4 27 -14 32 -20 18 -20 -19 0 -19 -1 2 -18 13 -9 26
-33 30 -52 l6 -35 -24 16 c-53 35 -129 52 -205 46 -77 -6 -114 -21 -299 -125
-49 -28 -92 -49 -94 -46 -3 3 1 9 9 14 8 5 11 12 7 16 -4 4 -2 13 4 20 7 9 1
15 -24 23 -19 7 -45 23 -58 37 -13 14 -39 35 -59 47 -36 22 -163 126 -190 155
-8 10 -40 37 -70 62 -30 25 -59 50 -65 56 -20 20 -81 61 -125 84 -25 12 -52
28 -60 36 -9 7 -58 35 -110 62 -52 26 -120 64 -151 84 -30 20 -73 41 -96 47
-22 6 -48 20 -58 31 -10 11 -22 20 -26 20 -4 0 -28 9 -53 20 -26 11 -48 19
-51 20 -3 0 -21 7 -41 15 -46 19 -98 19 -113 1 -7 -8 -13 -28 -13 -45 -1 -16
-7 -32 -15 -35 -11 -5 -13 -22 -8 -83 7 -86 32 -237 44 -268 8 -19 23 -85 40
-172 4 -23 12 -48 18 -55 5 -7 16 -29 23 -48 8 -19 31 -57 52 -83 21 -27 38
-53 38 -58 0 -17 131 -138 172 -158 62 -29 127 -51 154 -51 13 0 24 -4 24 -10
0 -5 19 -10 43 -10 24 0 52 -6 62 -14 18 -13 16 -15 -23 -40 -23 -14 -48 -26
-56 -26 -8 0 -18 -4 -21 -10 -3 -5 2 -10 12 -10 11 0 14 -3 7 -8 -14 -9 -28
-43 -25 -60 1 -8 -5 -22 -14 -32 -10 -11 -12 -20 -6 -24 6 -4 8 -13 4 -21 -3
-9 0 -21 6 -28 8 -10 3 -23 -21 -51 -26 -32 -29 -41 -20 -61 7 -15 8 -26 2
-30 -17 -10 -12 -48 5 -41 12 4 15 -3 15 -29 0 -44 -37 -75 -87 -73 -30 1 -43
-6 -73 -38 -35 -37 -47 -45 -102 -76 -13 -7 -38 -28 -56 -45 -21 -20 -44 -33
-60 -33 -15 0 -45 -14 -66 -30 -22 -17 -37 -30 -33 -30 3 0 -7 -15 -24 -32
-16 -18 -29 -38 -29 -45 0 -7 -3 -13 -7 -14 -48 -4 -74 -19 -117 -67 -12 -13
-34 -30 -49 -39 -16 -8 -26 -20 -24 -26 2 -7 -19 -38 -46 -71 -43 -49 -52 -56
-62 -43 -10 14 -19 12 -71 -17 -32 -18 -59 -37 -59 -43 0 -11 -74 -83 -84 -81
-3 0 -8 -1 -11 -2 -3 -1 -36 -8 -75 -14 l-70 -12 41 -18 c49 -21 92 -71 68
-80 -13 -5 -11 -12 12 -41 26 -34 26 -36 10 -74 l-15 -40 37 -31 c20 -16 40
-30 43 -30 10 0 17 -37 9 -49 -10 -17 -37 -3 -44 24 -7 27 -37 37 -54 18 -10
-10 -10 -13 -1 -13 7 0 9 -3 6 -6 -3 -4 5 -15 18 -26 14 -11 25 -24 25 -29 0
-14 -37 -10 -54 6 -16 17 -63 20 -86 6 -10 -7 -21 -3 -37 14 -13 12 -32 25
-43 28 -17 4 -20 0 -20 -24 0 -26 8 -34 26 -26 11 5 22 -29 17 -56 l-5 -27
-35 30 c-35 31 -52 36 -69 21 -5 -5 -20 -11 -34 -13 -14 -2 -24 -9 -23 -15 2
-9 -4 -10 -21 -3 -27 10 -94 3 -113 -12 -7 -6 -18 -5 -30 1 -10 6 -33 17 -50
26 -32 15 -33 15 -24 -7 5 -13 12 -34 15 -48 4 -19 18 -30 53 -44 26 -10 56
-26 66 -34 19 -17 171 -41 264 -42 34 0 65 -5 68 -10 3 -6 21 -10 38 -10 18 0
37 -4 42 -8 6 -4 10 -50 11 -102 0 -73 5 -104 20 -135 30 -62 62 -74 195 -76
75 -1 123 -6 141 -15 24 -12 36 -12 92 2 l64 16 148 -88 c107 -63 183 -100
268 -130 l120 -41 13 -46 c12 -43 16 -46 56 -52 23 -4 45 -9 48 -11 4 -2 1
-23 -6 -46 -10 -37 -10 -44 3 -54 29 -21 7 -44 -42 -44 -46 0 -68 -13 -40 -24
13 -5 10 -13 -20 -46 -20 -22 -36 -46 -35 -53 0 -9 2 -9 6 0 3 10 9 10 26 0
12 -7 25 -16 29 -22 5 -6 8 -4 8 5 0 12 2 12 15 0 10 -11 13 -26 8 -53 -4 -26
-9 -34 -14 -25 -6 9 -9 2 -9 -19 0 -17 -6 -34 -12 -36 -10 -4 -10 -6 -1 -6 12
-1 -34 -103 -49 -109 -5 -2 -8 -8 -8 -13 0 -5 -14 -23 -30 -39 -17 -16 -30
-34 -30 -39 0 -5 -9 -13 -20 -16 -11 -4 -18 -10 -15 -14 6 -10 -132 -151 -139
-143 -3 3 -6 -2 -6 -12 0 -9 -7 -19 -15 -22 -8 -3 -17 -14 -20 -25 -4 -10 -11
-18 -18 -16 -6 1 -16 -8 -22 -21 -5 -12 -15 -20 -21 -18 -7 3 -18 -9 -24 -25
-7 -16 -15 -27 -18 -25 -2 3 -17 -3 -31 -13 -40 -27 -61 -33 -61 -16 0 18 -20
20 -20 3 -1 -8 -6 -6 -14 5 -10 13 -21 16 -40 11 -16 -4 -26 -2 -26 5 0 6 5
11 10 11 13 0 7 70 -8 96 -10 17 -11 17 -20 -6 -5 -14 -15 -49 -22 -78 -7 -29
-23 -65 -36 -79 -13 -14 -22 -28 -19 -31 3 -3 16 7 30 22 14 15 30 24 35 21 6
-4 8 -10 5 -15 -3 -5 4 -25 15 -44 11 -20 20 -38 20 -41 0 -3 0 -9 0 -15 0 -5
7 -10 15 -10 18 0 20 -16 3 -23 -8 -3 -6 -6 5 -6 24 -1 21 -16 -5 -29 -18 -8
-19 -11 -5 -11 9 -1 17 -5 17 -10 0 -5 3 -17 7 -27 4 -12 3 -15 -5 -10 -7 4
-19 1 -27 -7 -12 -13 -1 -20 88 -60 56 -25 113 -49 126 -53 l25 -7 -27 -14
c-15 -7 -27 -18 -27 -23 0 -14 27 -12 33 3 3 7 6 5 6 -5 1 -10 -5 -18 -12 -18
-8 0 -19 -11 -27 -24 -7 -14 -24 -27 -37 -31 -13 -3 -23 -11 -20 -18 4 -14
-22 -36 -43 -36 -12 0 -12 2 2 13 10 7 18 16 18 20 0 10 -38 7 -46 -5 -3 -6
-17 -9 -30 -6 -16 3 -24 0 -24 -10 0 -9 -6 -12 -17 -9 -10 3 -24 2 -32 -3 -9
-6 -24 -5 -40 2 -41 18 -116 67 -103 67 7 0 12 5 12 11 0 6 -9 8 -20 4 -11 -4
-20 -2 -20 4 0 6 -6 10 -12 8 -8 -1 -12 6 -10 16 3 14 -1 17 -16 13 -21 -7
-37 7 -45 39 -4 18 -5 18 -6 -2 -1 -24 13 -41 68 -85 l35 -26 -19 -61 c-10
-34 -15 -64 -12 -68 4 -3 7 -1 7 6 0 7 4 10 9 7 13 -8 42 4 36 14 -3 5 -1 12
5 15 6 4 28 -12 49 -35 22 -24 44 -40 50 -36 17 11 13 -3 -10 -35 -28 -40 -43
-37 -34 7 l6 36 -26 -25 c-21 -19 -25 -30 -20 -47 6 -18 9 -20 16 -9 7 11 9
10 9 -4 0 -10 5 -15 10 -12 10 6 7 -21 -6 -62 -6 -21 -31 -15 -38 10 l-6 22
-19 -24 c-10 -13 -23 -21 -30 -17 -7 5 -11 -1 -11 -14 0 -17 -5 -20 -35 -18
-19 1 -35 3 -35 4 0 2 5 15 11 31 6 15 13 42 15 58 3 25 1 27 -9 15 -6 -9 -31
-21 -54 -28 -24 -7 -43 -17 -43 -22 0 -6 -11 -10 -24 -10 -17 0 -27 -7 -32
-22 -5 -18 3 -31 44 -69 46 -42 202 -129 234 -129 7 0 22 -7 32 -15 19 -14 19
-15 -8 -15 -15 0 -25 -4 -21 -10 4 -6 -8 -10 -30 -10 -39 0 -145 48 -220 100
-23 16 -45 26 -49 23 -17 -17 -5 -76 22 -102 33 -33 128 -72 195 -79 49 -5 55
-10 35 -30 -15 -15 -32 -16 -23 -2 10 16 -12 12 -29 -5 -20 -21 -42 -19 -127
10 -41 14 -82 28 -91 32 -13 4 -18 0 -18 -14 0 -11 -11 -36 -24 -55 l-24 -36
44 -6 c45 -6 165 -58 182 -79 6 -7 13 -24 17 -40 9 -33 -6 -36 -34 -5 -23 24
-72 58 -84 58 -5 0 12 -19 37 -42 26 -25 48 -56 52 -73 6 -29 5 -28 -43 20
-26 28 -64 57 -83 64 -19 7 -73 30 -120 51 -146 65 -183 71 -370 57 -112 -8
-180 -40 -270 -128 -51 -49 -56 -56 -106 -156 -40 -81 -52 -139 -34 -173 15
-29 93 -64 205 -92 125 -31 357 -32 495 -1 116 26 219 64 281 104 49 31 59 45
59 82 0 36 52 127 99 173 l44 44 -7 76 -6 77 50 67 c28 37 70 84 95 104 57 47
56 74 -2 134 l-42 44 32 64 c17 35 37 64 43 64 7 0 15 7 18 16 3 9 11 12 18 8
8 -5 9 -2 5 9 -4 11 -1 17 8 17 7 0 16 8 19 18 5 16 13 17 59 11 69 -10 138
-10 114 0 -17 6 -17 8 -4 20 23 18 62 155 58 203 -1 15 6 34 17 45 15 14 21
38 27 104 5 65 12 96 30 125 14 21 24 35 24 29 0 -5 -6 -19 -14 -29 -8 -11
-15 -27 -14 -35 0 -14 1 -14 6 -1 3 8 22 35 42 60 37 45 81 157 81 206 0 36
24 79 94 164 77 95 190 211 182 187 -4 -14 3 -12 37 11 56 39 168 59 235 42
131 -33 369 -172 474 -277 106 -106 105 -111 -12 -228 -49 -49 -90 -95 -90
-103 0 -27 70 -83 145 -115 35 -15 37 -15 18 -1 -13 9 -23 24 -24 33 0 10 -2
12 -6 3 -2 -6 -9 -9 -14 -6 -6 3 -2 12 8 19 14 11 19 10 30 -4 11 -13 12 -12
3 12 -13 36 -3 54 16 30 12 -17 13 -16 15 7 1 17 3 20 6 8 5 -20 16 -22 43 -8
13 7 21 7 25 0 4 -6 16 -8 27 -4 17 5 20 3 14 -11 -5 -14 -2 -16 14 -12 13 3
26 -3 39 -19 10 -13 21 -20 25 -17 14 15 5 -12 -11 -30 -10 -11 -12 -17 -5
-13 18 11 14 -8 -7 -31 -19 -20 -19 -21 4 -31 13 -6 43 -16 67 -23 40 -11 41
-12 21 -22 -29 -13 -31 -41 -3 -34 11 3 20 2 20 -1 0 -9 -67 -62 -78 -62 -5 0
-25 -14 -43 -31 -28 -25 -30 -29 -11 -24 13 4 22 2 22 -4 0 -6 -7 -11 -16 -11
-9 0 -28 -9 -42 -21 -20 -16 -34 -19 -62 -14 -104 19 -273 95 -328 146 -32 30
-36 39 -33 70 1 8 -2 26 -8 40 -8 23 -9 22 -16 -16 -10 -52 17 -101 75 -134
40 -22 41 -25 35 -60 -9 -50 -26 -64 -81 -67 -63 -4 -80 -23 -99 -112 -10 -43
-25 -97 -35 -122 -10 -25 -26 -65 -36 -90 -10 -25 -26 -64 -36 -87 -23 -53
-23 -95 0 -115 27 -25 93 -55 157 -73 206 -58 470 -146 601 -200 285 -119 455
-156 724 -159 207 -1 266 15 292 84 12 32 -7 112 -40 165 -36 59 -95 135 -104
135 -4 0 -28 16 -54 35 -25 19 -54 35 -65 35 -11 0 -22 7 -25 15 -4 8 -17 15
-29 15 -13 0 -26 4 -30 10 -3 5 -12 7 -20 3 -8 -3 -15 0 -15 7 0 6 -4 9 -9 6
-5 -3 -35 1 -68 9 -32 8 -43 13 -25 12 17 -2 32 0 32 5 0 11 -264 2 -345 -12
-38 -7 -95 -13 -125 -14 -54 -1 -54 -1 -93 -56 -21 -30 -45 -81 -54 -113 -13
-44 -22 -59 -39 -63 -34 -9 -44 3 -44 48 0 28 11 61 34 104 l35 63 -52 11
c-60 13 -59 14 -113 -92 -37 -73 -63 -87 -85 -47 -9 18 -6 31 19 80 l30 58
-39 27 -39 27 20 33 19 34 -24 0 c-29 0 -55 9 -55 20 0 4 27 7 59 7 46 -1 64
3 82 18 l22 20 -13 -25 c-11 -22 -11 -23 3 -10 8 8 17 29 21 45 5 22 4 26 -4
15 -5 -8 -10 -11 -10 -7 0 4 10 21 21 37 27 36 20 54 -28 78 -39 18 -40 22
-27 56 5 13 4 17 -4 12 -8 -5 -8 1 0 24 7 20 15 29 24 26 8 -3 14 -1 14 5 0 6
38 9 107 7 78 -2 107 0 110 10 3 6 9 12 14 12 21 0 58 45 69 86 7 25 17 47 21
50 5 3 9 16 9 29 0 13 5 36 12 52 12 29 13 36 22 94 3 19 20 80 37 135 27 88
30 110 27 194 -5 120 -26 168 -123 269 -83 86 -298 273 -329 284 -31 12 -76
58 -69 71 3 6 3 8 -2 4 -4 -4 -26 5 -49 21 -22 16 -61 38 -85 50 -41 21 -43
24 -36 54 3 18 7 37 9 42 1 6 4 15 7 20 3 6 6 23 7 39 1 17 8 33 15 38 10 6
-58 14 -86 9 -5 -1 -6 3 -3 8 3 4 -13 12 -37 16 l-42 8 35 6 c52 10 65 20 45
35 -13 9 -16 32 -17 120 0 60 4 111 10 115 5 3 26 49 47 101 37 93 66 142 82
140 4 -1 12 15 16 34 5 20 13 36 18 36 5 0 9 6 9 14 0 7 9 25 20 39 15 18 17
27 8 30 -10 4 -10 6 0 6 7 1 12 14 12 31 0 17 6 40 13 51 15 26 87 100 100
102 20 4 90 74 108 107 10 19 48 67 84 105 42 45 64 76 61 88 -2 9 0 15 5 11
5 -3 9 0 9 5 0 6 6 11 14 11 8 0 24 9 37 21 20 16 20 18 4 11 -43 -20 -109
-25 -327 -26 -220 -1 -227 -2 -250 -23 -14 -13 -30 -23 -36 -23 -8 0 -12 -19
-12 -55 0 -49 -2 -55 -21 -55 -11 0 -27 7 -36 15 -21 21 -39 13 -35 -15 2 -12
-2 -26 -9 -31 -10 -6 -10 -11 -1 -22 13 -15 7 -47 -8 -47 -5 0 -10 6 -13 13
-3 9 -10 9 -33 -3 -52 -27 -55 -33 -27 -62 21 -22 26 -39 30 -95 4 -60 2 -71
-19 -96 l-23 -28 -2 102 c-1 56 -5 104 -8 107 -9 9 -25 -20 -25 -46 0 -13 -4
-21 -9 -17 -5 3 -7 20 -4 38 8 53 -13 111 -51 141 -59 44 -128 76 -166 76 -53
0 -65 18 -52 77 18 82 24 200 11 209 -7 4 -9 3 -6 -3 4 -6 0 -13 -8 -17 -9 -3
-15 -18 -15 -34 0 -16 -9 -41 -20 -55 -11 -14 -20 -30 -20 -37 0 -6 -5 -8 -12
-4 -8 5 -9 2 -5 -9 5 -14 2 -16 -18 -11 -19 5 -25 2 -25 -10 0 -9 -5 -16 -11
-16 -6 0 -8 -7 -5 -16 5 -12 -1 -15 -32 -12 -20 2 -36 8 -34 13 2 6 14 9 28 8
18 -1 24 2 20 12 -2 7 0 15 6 17 27 9 -7 28 -50 28 -43 1 -45 2 -28 15 13 10
17 22 13 42 -3 15 -1 61 5 100 9 67 13 75 43 93 23 14 51 20 98 21 l65 1 4 57
c3 31 9 65 13 75 6 14 5 17 -3 12 -16 -9 -15 7 1 47 8 18 12 37 11 42 -2 6
-10 46 -18 90 -9 44 -23 116 -33 160 -9 44 -16 106 -15 138 1 34 -3 55 -8 52
-15 -9 -12 27 5 75 17 47 14 60 -10 40 -13 -11 -15 -8 -15 16 0 16 9 44 20 62
20 33 20 33 1 27 -18 -5 -19 -3 -8 30 6 20 21 48 35 62 16 18 20 28 12 33 -7
5 0 17 22 35 18 15 33 33 33 39 0 6 16 19 35 28 19 10 43 27 52 39 14 16 24
19 48 14 21 -5 30 -3 30 6 0 9 5 8 18 -3 9 -8 55 -20 101 -27 88 -13 138 -28
128 -38 -8 -7 37 -43 55 -43 16 0 51 -54 41 -64 -3 -3 -1 -6 5 -6 7 0 19 -18
28 -40 17 -43 34 -53 34 -20 0 11 7 20 15 20 12 0 12 5 4 24 -13 28 4 67 60
136 78 97 154 139 267 147 98 7 160 -6 219 -47 23 -16 46 -26 50 -22 5 4 5 2
2 -4 -4 -7 -1 -14 7 -17 7 -3 23 -38 36 -78 22 -67 23 -78 12 -148 -15 -106
-38 -175 -68 -211 -15 -17 -24 -34 -20 -37 3 -4 6 -1 6 5 0 6 14 13 31 17 18
4 34 16 39 28 5 14 9 16 10 7 0 -12 2 -13 9 -1 6 9 11 10 15 2 4 -6 14 -11 22
-11 10 0 14 14 14 57 0 31 5 85 11 120 10 56 14 64 38 69 14 4 43 15 64 26 30
15 37 16 37 4 0 -8 -5 -18 -11 -22 -6 -3 -8 -15 -6 -26 3 -11 -1 -38 -9 -61
-31 -87 -37 -145 -19 -205 24 -84 65 -161 110 -209 38 -41 65 -55 65 -33 0 7
6 7 20 0 23 -12 26 -1 9 32 -10 19 -9 20 10 15 11 -3 23 -2 26 3 6 10 -32 35
-68 44 -35 8 -107 53 -107 65 0 5 26 -3 58 -19 71 -36 122 -33 114 6 -5 26
-16 30 -100 37 -62 5 -70 10 -48 32 33 33 49 80 50 142 1 39 5 58 10 52 30
-29 71 9 98 90 l15 43 17 -23 c9 -13 16 -42 16 -64 0 -50 19 -95 40 -95 32 0
109 101 124 163 4 15 15 36 26 47 16 16 18 25 10 45 -5 14 -6 25 -1 25 15 0
29 61 26 110 -1 29 5 56 17 76 25 43 22 67 -3 26 -27 -42 -32 -37 -14 13 8 22
14 49 15 60 0 11 6 31 13 45 6 14 12 41 12 60 0 19 4 38 9 42 6 4 4 14 -5 25
-13 16 -13 17 4 4 36 -28 15 14 -47 96 -88 114 -136 180 -136 187 0 10 77 -84
129 -159 22 -32 41 -54 41 -49 -1 20 -117 243 -124 237 -4 -4 -4 0 0 10 3 9
11 14 17 10 6 -4 -10 21 -37 55 -26 34 -61 69 -77 78 -33 17 -157 28 -174 15
-5 -4 -20 -10 -31 -13 -18 -5 -22 -1 -22 21 0 14 6 38 14 52 7 15 10 29 7 33
-4 3 0 6 7 6 11 0 11 3 2 12 -7 7 -12 17 -12 23 0 5 4 5 8 -2 6 -9 11 -6 21 8
8 15 9 19 1 14 -9 -6 -9 -2 -1 14 7 11 14 21 17 21 3 0 2 -5 -2 -12 -4 -7 -3
-8 5 -4 6 4 9 12 5 17 -8 14 26 50 40 42 6 -3 8 -2 3 2 -16 19 105 108 176
129 38 12 3 26 -64 26 -39 0 -69 4 -69 10 0 6 11 10 24 10 14 0 28 5 32 12 4
7 3 8 -5 4 -14 -9 -73 3 -67 13 3 4 -12 5 -32 2 l-37 -5 30 -6 c18 -4 -19 -8
-90 -12 -197 -9 -257 -42 -352 -195 -25 -41 -50 -70 -56 -66 -6 4 -7 1 -2 -7
5 -8 2 -17 -7 -24 -8 -6 -17 -19 -21 -30 -4 -10 -13 -16 -21 -13 -10 4 -18 -5
-25 -24 -25 -71 -23 -18 5 158 17 108 36 174 58 208 9 14 12 25 6 25 -5 0 -28
-28 -50 -62z m256 -143 c-15 -14 -30 -25 -33 -25 -4 0 4 11 17 25 13 14 28 25
33 25 6 0 -2 -11 -17 -25z m-1947 -86 c39 -13 240 -112 336 -166 74 -42 183
-93 197 -93 10 0 34 -16 103 -70 10 -8 44 -39 75 -69 30 -30 44 -46 30 -35
-59 46 -119 84 -134 84 -9 0 -16 6 -16 14 0 9 -8 12 -26 8 -20 -4 -25 -2 -19
8 6 10 3 12 -13 8 -15 -4 -19 -2 -15 8 3 9 -2 14 -17 14 -12 0 -31 11 -42 25
-14 19 -26 24 -40 19 -28 -9 -71 15 -57 32 7 8 7 14 -1 19 -5 3 -10 1 -10 -6
0 -8 -7 -6 -19 5 -22 20 -56 18 -56 -4 0 -8 11 -17 25 -19 23 -3 24 -4 5 -12
-19 -7 -19 -8 3 -8 18 -1 22 -7 22 -34 0 -21 -8 -41 -19 -51 -30 -27 -32 -85
-5 -121 12 -16 32 -52 45 -80 12 -27 34 -61 48 -75 15 -14 37 -45 51 -70 13
-25 34 -60 47 -78 12 -19 25 -42 28 -52 8 -24 85 -60 147 -67 33 -4 45 -9 36
-15 -18 -12 -107 1 -136 20 -12 8 -25 12 -28 9 -8 -7 37 -67 50 -67 6 -1 -4
-7 -21 -15 -18 -8 -33 -19 -33 -25 0 -15 -126 -12 -189 4 -71 19 -121 54 -209
144 -85 87 -148 204 -183 337 -11 44 -25 85 -31 92 -5 7 -7 17 -3 23 3 5 1 10
-5 10 -6 0 -9 3 -6 8 2 4 0 30 -5 57 -12 63 -15 213 -5 243 4 12 13 22 21 22
7 0 15 7 19 15 7 18 10 18 55 4z m2337 -179 c26 -10 114 -96 114 -111 0 -4
-21 13 -47 38 -59 55 -79 63 -156 64 -44 0 -56 3 -42 9 28 12 99 12 131 0z
m-159 -16 c-3 -3 -12 -4 -19 -1 -8 3 -5 6 6 6 11 1 17 -2 13 -5z m186 -94 l32
-32 -41 26 c-22 15 -61 31 -85 36 l-44 9 53 -3 c45 -3 59 -8 85 -36z m-1021
-87 c-2 -16 -9 -34 -15 -41 -16 -21 -5 -21 58 1 46 15 93 21 201 25 156 4 228
-10 329 -66 50 -27 125 -118 125 -151 0 -9 -7 -3 -16 14 -22 43 -40 60 -65 62
-21 2 -21 2 2 -24 29 -32 11 -23 -61 32 -67 51 -148 77 -258 83 -45 2 -81 7
-78 9 3 3 0 11 -7 17 -13 14 -98 0 -178 -29 -82 -30 -78 -31 -74 10 3 31 28
85 39 85 2 0 1 -12 -2 -27z m205 -59 c-3 -3 -12 -4 -19 -1 -8 3 -5 6 6 6 11 1
17 -2 13 -5z m-753 -40 c3 -8 2 -12 -4 -9 -6 3 -10 10 -10 16 0 14 7 11 14 -7z
m1689 -65 c31 -17 59 -34 62 -40 4 -5 -16 -30 -43 -56 -54 -53 -114 -138 -110
-156 2 -7 0 -12 -3 -12 -3 0 -13 -6 -22 -13 -12 -10 -21 -11 -36 -3 -11 6 -29
11 -41 11 -19 0 -21 -4 -15 -32 6 -27 30 -84 40 -96 2 -2 20 6 41 17 49 26
130 28 161 3 12 -9 25 -30 28 -47 4 -18 3 -25 -2 -18 -12 18 -60 17 -115 0
-40 -13 -47 -14 -52 -1 -3 8 0 14 7 14 9 0 8 3 -1 9 -14 9 20 26 68 34 20 3
19 5 -8 6 -18 0 -49 -6 -69 -14 -19 -8 -48 -15 -64 -15 -23 0 -31 7 -43 35 -8
19 -27 51 -42 70 -25 34 -20 51 6 20 7 -9 15 -14 17 -11 5 5 -57 96 -96 141
l-26 30 25 -20 c14 -11 28 -25 32 -31 4 -6 17 -22 28 -35 l21 -24 -15 26 c-9
14 -13 29 -9 33 4 3 -9 20 -28 37 -19 17 -28 27 -20 23 10 -5 12 -3 7 5 -5 7
-15 10 -23 7 -8 -3 -11 -1 -8 4 11 18 32 11 62 -20 28 -29 31 -30 44 -13 13
16 12 17 -3 4 -15 -11 -19 -10 -29 13 -7 14 -10 28 -8 29 36 30 121 89 144
101 44 23 75 20 138 -15z m-748 -39 c8 -13 -15 -13 -35 0 -12 8 -11 10 7 10
12 0 25 -4 28 -10z m-78 -6 c-3 -3 -12 -4 -19 -1 -8 3 -5 6 6 6 11 1 17 -2 13
-5z m-974 -44 c31 -11 78 -20 104 -20 44 0 45 -1 30 -18 -10 -10 -17 -30 -17
-44 0 -24 -3 -25 -42 -24 -24 1 -54 8 -67 15 -28 15 -111 90 -111 100 0 14 47
10 103 -9z m430 -80 c37 -34 39 -40 20 -40 -21 0 -83 53 -83 71 0 19 22 8 63
-31z m984 -92 c-3 -8 -6 -5 -6 6 -1 11 2 17 5 13 3 -3 4 -12 1 -19z m-853 -73
c-4 -8 -8 -15 -10 -15 -2 0 -4 7 -4 15 0 8 4 15 10 15 5 0 7 -7 4 -15z m905
-20 c17 -20 31 -39 31 -44 0 -9 -47 -51 -58 -51 -4 0 -13 9 -20 21 -14 21 -7
109 8 109 4 0 22 -16 39 -35z m91 -54 c-14 -26 -13 -31 6 -31 8 0 12 -5 9 -10
-5 -8 -35 0 -53 15 -8 7 20 45 34 45 11 0 12 -4 4 -19z m246 -57 c-21 -7 -43
-11 -48 -8 -17 10 14 24 52 23 l35 0 -39 -15z m-368 -327 c4 -20 -25 -34 -40
-19 -15 15 -1 44 19 40 10 -2 19 -11 21 -21z m42 -83 c0 -40 -18 -80 -50 -109
l-22 -20 -24 28 c-15 18 -24 40 -23 60 l1 32 9 -27 c25 -68 89 -30 89 53 0 18
4 28 10 24 6 -3 10 -22 10 -41z m-1750 -207 c0 -2 -10 -12 -21 -23 -22 -19
-22 -19 -10 4 10 18 31 31 31 19z m-472 -397 c-7 -10 -14 -17 -17 -15 -4 4 18
35 25 35 2 0 -1 -9 -8 -20z m115 -42 c9 -18 18 -67 21 -108 3 -41 10 -97 16
-125 6 -27 13 -81 16 -120 4 -38 10 -75 15 -81 5 -5 6 -44 4 -85 -2 -41 -4
-82 -4 -92 -1 -24 -45 -67 -69 -67 -11 0 -37 7 -58 17 -22 9 -49 17 -61 19
-19 2 -87 67 -120 114 -18 26 -83 49 -145 51 -47 2 -63 -3 -117 -35 -41 -24
-70 -34 -80 -30 -9 4 -20 8 -24 8 -13 1 -47 49 -47 66 0 9 -8 27 -17 40 l-18
25 30 -23 c17 -13 31 -28 31 -33 3 -23 7 -22 13 6 3 17 12 31 19 31 6 1 17 2
23 3 5 0 8 5 5 10 -6 10 17 31 57 51 15 7 27 19 27 27 0 7 6 13 14 13 8 0 28
13 44 30 19 19 36 28 46 24 10 -4 16 -1 16 8 0 18 109 123 127 123 7 0 30 18
51 40 58 62 137 122 163 124 3 1 13 -14 22 -31z m342 -538 c3 -5 -3 -10 -14
-10 -12 0 -21 5 -21 10 0 6 6 10 14 10 8 0 18 -4 21 -10z m-819 -62 c5 -8 2
-9 -11 -4 -18 6 -18 6 -2 -12 16 -18 16 -20 -8 -42 -20 -19 -22 -26 -13 -44 6
-11 -10 1 -36 28 -35 37 -44 52 -35 62 18 22 94 31 105 12z m693 -60 c-1 -7
-5 -24 -9 -38 l-8 -25 -1 28 c-1 29 -1 29 -53 22 -61 -8 -188 -43 -203 -56 -5
-5 -14 -9 -20 -9 -5 0 6 10 24 23 19 12 78 32 130 43 115 26 141 28 140 12z
m328 -4 c-3 -3 -12 -4 -19 -1 -8 3 -5 6 6 6 11 1 17 -2 13 -5z m29 -29 c9 -22
-12 -42 -38 -39 -13 1 -26 3 -31 3 -12 2 16 40 33 45 27 7 31 6 36 -9z m-71
-5 c-3 -5 -10 -10 -16 -10 -5 0 -9 5 -9 10 0 6 7 10 16 10 8 0 12 -4 9 -10z
m-847 -42 c-58 -60 -84 -95 -80 -107 2 -6 -1 -11 -7 -11 -6 0 -11 -7 -11 -15
0 -8 -6 -15 -14 -15 -9 0 -14 8 -12 23 3 26 37 87 49 87 4 0 19 11 32 24 30
30 68 57 73 52 2 -2 -12 -19 -30 -38z m476 26 c9 -3 13 -10 10 -15 -3 -5 2 -6
10 -3 19 7 20 -76 0 -114 -16 -31 -18 -52 -5 -52 12 0 40 84 43 128 2 28 18
48 18 21 0 -5 6 -7 13 -3 8 6 8 3 -2 -9 -8 -10 -14 -47 -16 -92 -2 -63 -7 -82
-30 -115 -20 -29 -31 -37 -40 -30 -9 8 -16 2 -25 -22 -46 -115 -56 -128 -101
-128 -11 0 -17 -4 -14 -10 8 -13 -1 -13 -27 1 -11 6 -32 13 -46 15 -52 9 -55
12 -49 57 l6 42 -25 -28 c-26 -30 -34 -23 -9 9 8 10 17 40 21 65 4 29 16 57
31 73 27 29 25 48 -2 26 -14 -12 -14 -9 1 26 31 72 36 79 67 104 20 16 44 25
67 25 42 1 80 13 80 26 0 11 3 11 24 3z m-382 -51 c-10 -21 -32 -65 -49 -98
-25 -51 -34 -60 -59 -62 -16 -1 -23 0 -16 3 15 7 16 31 0 36 -17 6 20 55 83
112 28 25 53 46 56 46 2 0 -4 -17 -15 -37z m754 9 c6 -4 10 -16 8 -27 -11 -79
-12 -111 -4 -120 5 -6 8 -20 8 -30 -1 -11 2 -32 5 -47 4 -16 4 -28 -1 -28 -4
0 -16 -15 -27 -32 -28 -49 -94 -108 -120 -108 -16 0 -25 8 -31 28 -5 20 -8 23
-11 10 -3 -10 -9 -18 -14 -18 -6 0 -7 5 -4 11 4 6 -1 17 -11 24 -17 13 -17 14
-2 15 22 0 12 36 -15 55 -29 20 -30 92 -2 108 11 6 23 10 28 9 12 -4 8 16 -5
21 -9 3 -7 7 5 12 27 11 65 51 69 72 2 11 19 21 45 28 23 5 45 13 49 18 9 9
16 9 30 -1z m-626 -42 c-8 -15 -8 -20 2 -20 6 0 2 -9 -10 -20 -16 -15 -21 -28
-17 -48 3 -15 2 -21 -1 -14 -3 6 -10 10 -15 6 -13 -8 -11 12 6 53 15 35 33 63
42 63 2 0 -1 -9 -7 -20z m-1119 -1 c-16 -6 -28 -6 -35 1 -7 7 1 10 25 9 32 0
33 -1 10 -10z m594 -7 c-3 -3 -11 0 -18 7 -9 10 -8 11 6 5 10 -3 15 -9 12 -12z
m-361 -11 c3 -5 -8 -11 -24 -13 -17 -3 -30 -3 -30 -1 0 3 28 16 47 22 1 1 4
-3 7 -8z m539 -101 c-3 -11 -7 -20 -9 -20 -2 0 -4 9 -4 20 0 11 4 20 9 20 5 0
7 -9 4 -20z m294 -22 c-3 -7 -5 -2 -5 12 0 14 2 19 5 13 2 -7 2 -19 0 -25z
m-10 -40 c-3 -8 -6 -5 -6 6 -1 11 2 17 5 13 3 -3 4 -12 1 -19z m373 -25 c-1
-15 -30 -46 -37 -40 -3 4 2 16 12 27 19 21 25 24 25 13z m620 -2 c0 -5 11 -23
25 -39 23 -27 25 -36 19 -84 -6 -52 -27 -98 -40 -86 -3 4 -1 15 5 26 19 35 13
117 -10 156 -12 20 -16 36 -10 36 6 0 11 -4 11 -9z m-996 -66 c-4 -8 -8 -15
-10 -15 -2 0 -4 7 -4 15 0 8 4 15 10 15 5 0 7 -7 4 -15z m21 -58 c13 16 14 16
15 1 0 -23 45 -56 86 -64 59 -11 105 4 146 47 34 35 37 37 27 13 -15 -41 -45
-62 -99 -69 -61 -8 -103 0 -157 31 -32 18 -43 31 -42 47 2 21 2 21 6 -1 4 -22
5 -23 18 -5z m642 -149 c-3 -8 -6 -5 -6 6 -1 11 2 17 5 13 3 -3 4 -12 1 -19z
m-19 -13 c-2 -26 -30 -35 -43 -15 -4 6 -3 9 2 8 4 -2 9 1 10 6 1 7 22 25 30
26 2 0 2 -11 1 -25z m36 -26 c-9 -10 -21 -19 -26 -19 -15 0 -8 19 14 40 27 25
38 8 12 -21z m263 -56 c-3 -10 -5 -4 -5 12 0 17 2 24 5 18 2 -7 2 -21 0 -30z
m240 -135 c-3 -7 -5 -2 -5 12 0 14 2 19 5 13 2 -7 2 -19 0 -25z m-488 -334 c2
-2 2 -7 -2 -10 -3 -3 -16 2 -29 11 l-23 17 25 -7 c14 -4 27 -9 29 -11z m-110
-81 c0 -25 -1 -26 -9 -8 -12 27 -12 35 0 35 6 0 10 -12 9 -27z m881 -223 c0
-5 -2 -10 -4 -10 -3 0 -8 5 -11 10 -3 6 -1 10 4 10 6 0 11 -4 11 -10z m31 -7
c0 -15 2 -15 9 2 7 18 8 19 15 3 5 -13 18 -18 46 -18 21 0 39 -4 39 -10 0 -5
11 -12 25 -16 14 -3 23 -10 20 -14 -6 -10 23 -22 35 -15 4 3 6 -4 3 -15 -3
-12 -2 -20 3 -18 18 5 64 -49 64 -77 0 -19 4 -26 14 -22 10 4 16 -5 21 -30 5
-27 9 -33 16 -22 6 10 9 7 9 -14 0 -27 -1 -27 -24 -12 -24 16 -24 15 -31 -15
-4 -16 -11 -28 -15 -25 -5 3 -6 13 -3 23 6 15 5 15 -10 3 -9 -7 -26 -11 -37
-8 -11 3 -20 1 -20 -4 0 -20 -20 -7 -21 14 0 15 -5 10 -14 -18 -8 -25 -13 -32
-14 -19 -1 12 -11 26 -23 32 -22 10 -22 11 -3 12 17 1 17 3 -5 11 -18 7 -21
12 -11 18 10 6 9 10 -4 15 -14 5 -15 9 -6 20 10 11 8 16 -10 21 -15 5 -18 10
-9 15 8 5 4 9 -12 14 -18 5 -20 8 -9 15 11 7 9 10 -8 16 -11 3 -24 17 -27 31
-3 13 -13 24 -21 24 -13 0 -13 3 -3 15 10 13 9 15 -11 16 l-24 1 25 8 25 7
-29 8 c-28 8 -29 9 -8 16 12 5 22 13 22 19 0 18 20 11 21 -7z m303 -298 c3 -9
0 -15 -9 -15 -16 0 -27 14 -18 24 10 10 21 7 27 -9z m-190 -40 c-4 -8 -11 -15
-16 -15 -6 0 -5 6 2 15 7 8 14 15 16 15 2 0 1 -7 -2 -15z m76 -95 c20 10 21
10 12 -6 -14 -25 -92 -29 -92 -4 0 13 33 18 47 8 7 -6 20 -5 33 2z m-1340 -83
c0 -13 -7 -32 -15 -43 -14 -18 -15 -17 -9 11 12 60 24 76 24 32z m-157 -344
c-7 -2 -19 -2 -25 0 -7 3 -2 5 12 5 14 0 19 -2 13 -5z m-236 -170 c-3 -3 -11
-2 -17 2 -9 6 -9 10 1 16 14 8 27 -7 16 -18z m-234 -23 c-3 -11 -9 -20 -14
-20 -10 0 -12 33 -3 43 12 12 22 -3 17 -23z m187 20 c0 -5 -4 -10 -10 -10 -5
0 -10 5 -10 10 0 6 5 10 10 10 6 0 10 -4 10 -10z m1401 -46 c12 -15 11 -16 -9
-10 -13 4 -22 3 -22 -3 0 -5 13 -8 29 -6 21 3 35 -4 57 -26 22 -23 24 -29 11
-29 -10 0 -17 -8 -17 -20 0 -11 -4 -20 -10 -20 -15 0 -12 47 3 53 9 4 9 6 -1
6 -7 1 -16 -7 -20 -16 -4 -10 -18 -18 -30 -19 -21 -1 -23 3 -18 28 7 34 -7 37
-22 6 -16 -35 -14 -5 3 36 17 40 26 44 46 20z m162 -79 c-3 -9 -8 -14 -10 -11
-3 3 -2 9 2 15 9 16 15 13 8 -4z m-103 -296 c10 -6 -4 -8 -37 -7 -51 3 -60 7
-47 21 8 7 63 -2 84 -14z m748 -36 c-10 -2 -26 -2 -35 0 -10 3 -2 5 17 5 19 0
27 -2 18 -5z"/>
<path d="M3218 6213 c7 -3 16 -2 19 1 4 3 -2 6 -13 5 -11 0 -14 -3 -6 -6z"/>
<path d="M1170 3930 c8 -5 20 -10 25 -10 6 0 3 5 -5 10 -8 5 -19 10 -25 10 -5
0 -3 -5 5 -10z"/>
<path d="M1635 3749 c-4 -6 -5 -12 -2 -15 2 -3 7 2 10 11 7 17 1 20 -8 4z"/>
<path d="M1832 3637 c-5 -6 -13 -22 -16 -34 -11 -36 20 -29 32 7 11 31 1 48
-16 27z"/>
<path d="M4298 6168 c-23 -29 -46 -54 -50 -56 -9 -4 8 -59 26 -87 8 -12 12
-32 10 -43 -3 -11 -1 -23 5 -26 6 -4 11 1 11 12 0 22 36 139 50 165 8 13 6 17
-7 17 -9 0 -25 -8 -36 -17 -11 -10 -4 6 17 35 20 28 32 52 27 52 -5 0 -29 -24
-53 -52z m22 -80 c0 -2 -6 -20 -14 -41 -11 -32 -14 -35 -20 -21 -4 11 -2 20 3
22 6 2 9 8 5 13 -6 11 4 29 17 29 5 0 9 -1 9 -2z"/>
<path d="M3130 5950 c-8 -5 -10 -10 -5 -10 6 0 17 5 25 10 8 5 11 10 5 10 -5
0 -17 -5 -25 -10z"/>
<path d="M4261 5856 c-7 -32 -11 -60 -8 -62 7 -7 30 93 25 107 -2 7 -10 -14
-17 -45z"/>
<path d="M2930 5850 c-9 -6 -10 -10 -3 -10 6 0 15 5 18 10 8 12 4 12 -15 0z"/>
<path d="M3208 5504 c-34 -18 -36 -26 -5 -19 33 9 90 -51 98 -102 5 -32 6 -28
8 25 1 55 -2 66 -24 87 -28 29 -39 30 -77 9z"/>
<path d="M1888 5463 c6 -2 18 -2 25 0 6 3 1 5 -13 5 -14 0 -19 -2 -12 -5z"/>
<path d="M3155 5446 c-40 -61 -48 -177 -14 -220 24 -30 40 -32 78 -10 27 16
71 72 71 89 0 6 -11 -7 -25 -27 -42 -61 -91 -76 -119 -36 -19 27 -20 73 -1
113 l13 30 1 -41 c1 -22 7 -49 15 -59 43 -59 126 91 86 155 -8 12 -10 12 -15
-2 -15 -38 -82 -26 -72 13 7 26 1 24 -18 -5z"/>
<path d="M1700 5440 c11 -20 30 -28 30 -12 0 11 -22 32 -32 32 -5 0 -4 -9 2
-20z"/>
<path d="M1958 5453 c7 -3 16 -2 19 1 4 3 -2 6 -13 5 -11 0 -14 -3 -6 -6z"/>
<path d="M1595 5390 c-16 -18 -16 -20 -2 -20 9 0 21 9 27 20 6 11 7 20 2 20
-5 0 -17 -9 -27 -20z"/>
<path d="M1545 5350 c-3 -5 -2 -10 4 -10 5 0 13 5 16 10 3 6 2 10 -4 10 -5 0
-13 -4 -16 -10z"/>
<path d="M1419 5243 c-13 -16 -12 -17 4 -4 9 7 17 15 17 17 0 8 -8 3 -21 -13z"/>
<path d="M2503 5238 c-18 -24 -23 -47 -8 -42 14 6 18 -8 30 -111 12 -103 20
-115 25 -40 l6 70 22 -50 c12 -27 26 -57 32 -65 5 -8 18 -31 28 -50 101 -192
144 -252 271 -378 118 -117 151 -142 267 -200 l99 -49 161 6 c94 4 168 12 175
18 8 6 57 25 109 43 104 35 181 87 260 173 80 88 110 114 149 125 45 14 144
77 201 128 67 61 93 114 98 205 4 78 4 79 -27 108 -30 28 -97 58 -107 48 -2
-2 2 -17 10 -33 14 -26 14 -30 -8 -59 -48 -63 -152 -33 -117 33 6 11 30 29 53
41 24 11 35 21 26 21 -10 0 -39 -13 -65 -29 -56 -35 -99 -99 -139 -211 -15
-41 -33 -82 -39 -90 -7 -8 -10 -21 -8 -27 6 -16 2 -17 -144 -39 -68 -10 -123
-22 -123 -27 0 -5 -21 -5 -47 -1 -69 11 -76 9 -113 -25 -39 -35 -107 -50 -147
-32 -14 6 -40 9 -59 5 -19 -3 -40 -2 -47 3 -6 6 -25 13 -42 17 -55 13 -13 -13
81 -50 197 -78 423 -48 593 80 19 14 40 26 46 26 6 0 16 -19 22 -42 13 -49 10
-53 -112 -137 -92 -63 -138 -86 -205 -101 -60 -14 -264 -15 -431 -1 -93 8
-116 14 -190 49 -46 21 -100 54 -119 72 -19 17 -53 44 -75 60 -22 15 -73 63
-114 106 -64 69 -83 98 -153 243 -58 119 -79 172 -76 193 4 23 1 28 -18 28
-12 0 -26 -6 -31 -12z"/>
<path d="M1370 5169 c0 -5 5 -7 10 -4 6 3 10 8 10 11 0 2 -4 4 -10 4 -5 0 -10
-5 -10 -11z"/>
<path d="M2025 5080 c3 -5 8 -10 11 -10 2 0 4 5 4 10 0 6 -5 10 -11 10 -5 0
-7 -4 -4 -10z"/>
<path d="M1302 5032 c-15 -33 -11 -36 11 -7 9 13 14 26 9 29 -4 2 -13 -7 -20
-22z"/>
<path d="M1281 4974 c0 -11 3 -14 6 -6 3 7 2 16 -1 19 -3 4 -6 -2 -5 -13z"/>
<path d="M1149 4823 l-24 -28 28 24 c25 23 32 31 24 31 -2 0 -14 -12 -28 -27z"/>
<path d="M879 4563 c-13 -16 -12 -17 4 -4 9 7 17 15 17 17 0 8 -8 3 -21 -13z"/>
<path d="M819 4503 c-13 -16 -12 -17 4 -4 9 7 17 15 17 17 0 8 -8 3 -21 -13z"/>
<path d="M2721 4474 c0 -11 3 -14 6 -6 3 7 2 16 -1 19 -3 4 -6 -2 -5 -13z"/>
<path d="M715 4440 c-3 -6 1 -7 9 -4 18 7 21 14 7 14 -6 0 -13 -4 -16 -10z"/>
<path d="M2865 4340 c3 -5 10 -10 16 -10 5 0 9 5 9 10 0 6 -7 10 -16 10 -8 0
-12 -4 -9 -10z"/>
<path d="M3129 4294 c-7 -14 -25 -31 -39 -36 -24 -10 -24 -11 -5 -18 11 -5 31
-9 44 -9 23 -1 24 0 6 19 -10 11 -14 20 -9 20 5 0 17 12 27 25 14 19 15 25 4
25 -7 0 -20 -12 -28 -26z"/>
<path d="M3501 4313 c-61 -3 -101 -9 -115 -18 -27 -19 -42 -19 -26 0 21 25
-14 19 -36 -6 -10 -12 -38 -31 -62 -41 -24 -11 -41 -22 -39 -25 3 -2 40 3 82
12 57 13 80 14 88 6 22 -22 71 -12 105 20 18 17 35 29 38 26 9 -9 -102 -121
-153 -154 -28 -18 -60 -46 -70 -63 -9 -16 -20 -30 -24 -30 -10 0 -45 -61 -53
-95 -5 -19 -10 -25 -15 -17 -10 17 -39 5 -47 -20 -3 -11 -24 -38 -46 -60 -47
-47 -68 -92 -68 -146 0 -49 -10 -59 -31 -31 l-16 22 -27 -45 c-29 -49 -41 -84
-51 -140 -6 -37 -25 -54 -25 -23 0 8 -4 15 -9 15 -11 0 -21 -25 -21 -50 0 -10
-9 -25 -19 -32 -11 -8 -25 -26 -32 -41 -7 -15 -18 -27 -26 -27 -7 0 -13 -8
-13 -18 0 -10 -4 -22 -9 -27 -4 -6 -11 -22 -15 -37 -5 -20 -3 -26 7 -22 8 3
23 -17 42 -55 23 -50 35 -63 67 -76 21 -8 45 -15 53 -15 8 0 15 -4 15 -10 0
-5 9 -10 20 -10 20 0 71 -20 80 -31 10 -13 83 -39 110 -39 16 0 30 -5 32 -11
2 -5 19 -14 38 -19 19 -5 76 -24 125 -44 l90 -35 -3 -59 c-2 -33 1 -69 7 -81
24 -44 98 -63 157 -41 22 9 31 7 48 -9 16 -15 38 -21 86 -23 l65 -3 -3 -37
c-3 -26 1 -38 10 -39 7 0 2 -5 -12 -11 l-25 -11 30 -7 c17 -3 38 -3 47 2 25
12 40 10 68 -11 24 -19 24 -19 5 -41 l-20 -22 34 7 c23 5 31 4 27 -4 -4 -5
-22 -13 -41 -17 -20 -3 -41 -16 -50 -30 -9 -14 -25 -24 -40 -24 -13 0 -36 -5
-51 -10 -24 -9 -25 -9 -14 5 11 13 9 15 -14 15 -16 0 -26 5 -26 15 0 8 -5 15
-11 15 -7 0 -17 7 -24 16 -9 13 -16 14 -33 5 -41 -22 -45 -45 -14 -98 23 -39
38 -52 83 -70 30 -12 69 -23 87 -23 38 0 101 30 152 72 19 16 40 33 47 38 7 6
19 10 27 10 8 0 31 19 52 43 20 23 33 36 29 28 -5 -9 -4 -12 3 -7 6 4 9 13 5
21 -5 14 7 20 30 16 5 -1 6 3 2 8 -11 18 39 35 95 32 38 -1 69 4 100 18 25 10
61 21 80 23 33 3 35 1 44 -34 8 -32 6 -40 -11 -55 -24 -21 -53 -102 -53 -148
0 -18 8 -39 18 -47 21 -19 82 -34 82 -20 0 13 87 45 101 36 7 -4 9 -3 6 3 -6
10 14 24 38 28 6 0 9 6 7 13 -1 7 7 12 18 12 10 0 24 8 29 18 10 15 13 14 38
-15 16 -17 44 -41 63 -52 38 -23 114 -28 126 -9 9 15 -26 40 -48 35 -11 -3
-33 13 -63 45 -40 43 -45 54 -43 89 2 25 7 38 15 35 34 -13 114 -81 119 -102
8 -30 34 -32 34 -1 0 28 -25 172 -39 224 -7 24 -22 48 -41 61 -16 13 -30 28
-30 34 0 6 -7 20 -16 30 -30 32 -3 48 85 48 42 0 93 6 113 13 41 14 90 55 83
68 -3 4 -1 10 4 14 5 3 9 14 8 25 -1 10 -5 16 -10 13 -4 -3 -11 4 -14 16 -7
26 -5 26 -49 -4 -20 -14 -50 -25 -65 -25 -16 0 -29 -4 -29 -8 0 -32 -146 -35
-158 -3 -3 9 -10 19 -16 23 -7 5 -7 8 2 8 6 0 12 5 12 11 0 6 -7 9 -15 5 -16
-6 -55 26 -55 44 0 6 -13 4 -30 -5 -16 -8 -29 -19 -29 -23 1 -4 1 -15 0 -26
-1 -15 -4 -16 -16 -6 -15 13 -21 50 -7 50 4 0 18 9 32 20 l25 19 -43 -11 c-27
-7 -62 -28 -93 -56 -34 -30 -53 -41 -58 -34 -4 6 -18 9 -31 7 -14 -3 -85 -8
-158 -12 -97 -4 -136 -3 -141 5 -9 14 -150 44 -208 44 -24 0 -43 5 -43 10 0 6
-7 7 -16 4 -8 -3 -12 -2 -9 4 3 6 2 10 -2 10 -5 0 -13 10 -18 22 -6 13 -22 29
-37 36 -25 12 -175 180 -171 192 1 3 -10 6 -23 6 -23 2 -67 -38 -91 -81 -16
-28 -60 1 -168 111 -55 55 -114 108 -130 116 -17 9 -39 25 -49 37 -18 20 -18
23 -1 103 9 46 25 92 34 103 9 11 23 34 30 50 22 50 29 60 39 58 5 -1 22 25
36 57 15 33 37 72 49 87 12 16 33 44 47 63 27 39 30 43 66 85 36 42 74 125 83
185 4 27 5 49 2 48 -3 -1 -48 -4 -100 -5z m804 -1464 c11 -17 -1 -21 -15 -4
-8 9 -8 15 -2 15 6 0 14 -5 17 -11z m39 -15 c9 -22 -3 -32 -14 -14 -12 19 -12
30 -1 30 5 0 12 -7 15 -16z"/>
<path d="M420 4249 c0 -5 5 -7 10 -4 6 3 10 8 10 11 0 2 -4 4 -10 4 -5 0 -10
-5 -10 -11z"/>
<path d="M300 4077 c0 -8 3 -23 6 -31 9 -23 34 -1 33 28 0 11 -3 15 -6 8 -4
-10 -8 -10 -19 -1 -11 9 -14 8 -14 -4z"/>
<path d="M320 3995 c0 -23 3 -25 50 -25 59 0 64 14 14 35 -51 21 -64 19 -64
-10z"/>
<path d="M2621 3964 c0 -11 3 -14 6 -6 3 7 2 16 -1 19 -3 4 -6 -2 -5 -13z"/>
<path d="M352 3891 c14 -19 35 -35 45 -36 10 -1 23 -3 28 -5 6 -1 39 -2 74 -1
l64 1 -28 26 c-15 14 -29 23 -32 21 -2 -3 -16 -2 -31 2 -15 4 -42 4 -59 -1
-25 -7 -39 -5 -60 9 l-28 18 27 -34z"/>
<path d="M610 3866 c0 -2 7 -6 15 -10 8 -3 15 -1 15 4 0 6 -7 10 -15 10 -8 0
-15 -2 -15 -4z"/>
<path d="M4048 3013 c7 -3 16 -2 19 1 4 3 -2 6 -13 5 -11 0 -14 -3 -6 -6z"/>
<path d="M4182 2993 c5 -25 28 -28 28 -4 0 12 -6 21 -16 21 -9 0 -14 -7 -12
-17z"/>
<path d="M3700 2550 c-9 -6 -10 -10 -3 -10 6 0 15 5 18 10 8 12 4 12 -15 0z"/>
<path d="M4555 2320 c-13 -6 -15 -9 -5 -9 8 0 22 4 30 9 18 12 2 12 -25 0z"/>
<path d="M1520 1959 c0 -5 5 -7 10 -4 6 3 10 8 10 11 0 2 -4 4 -10 4 -5 0 -10
-5 -10 -11z"/>
<path d="M1261 1819 l-23 -31 26 -26 c24 -24 26 -25 26 -7 0 11 -5 27 -11 35
-9 12 -10 11 -4 -5 5 -16 4 -18 -7 -7 -10 10 -9 18 5 42 23 39 17 38 -12 -1z"/>
<path d="M1337 1709 c7 -7 15 -10 18 -7 3 3 -2 9 -12 12 -14 6 -15 5 -6 -5z"/>
<path d="M1771 1694 c0 -11 3 -14 6 -6 3 7 2 16 -1 19 -3 4 -6 -2 -5 -13z"/>
<path d="M1398 1693 c7 -3 16 -2 19 1 4 3 -2 6 -13 5 -11 0 -14 -3 -6 -6z"/>
<path d="M1210 1520 c0 -5 5 -10 11 -10 5 0 7 5 4 10 -3 6 -8 10 -11 10 -2 0
-4 -4 -4 -10z"/>
<path d="M1575 1500 c-3 -5 -1 -10 4 -10 6 0 11 5 11 10 0 6 -2 10 -4 10 -3 0
-8 -4 -11 -10z"/>
<path d="M3110 1395 c-7 -9 -11 -17 -9 -20 3 -2 10 5 17 15 14 24 10 26 -8 5z"/>
<path d="M1726 1373 c-6 -14 -5 -15 5 -6 7 7 10 15 7 18 -3 3 -9 -2 -12 -12z"/>
<path d="M1180 1284 c0 -8 5 -12 10 -9 6 4 8 11 5 16 -9 14 -15 11 -15 -7z"/>
</g>
</svg>
